<svg width="106" height="39" viewBox="0 0 106 39" fill="none" xmlns="http://www.w3.org/2000/svg">
<g clip-path="url(#clip0_706_1106)">
<path d="M4.39259 26.2211C4.35495 26.3769 4.24204 26.4159 4.12913 26.4159H3.26346C3.11291 26.4159 3 26.299 3 26.1432V18.273C3 18.0782 3.07528 18.0003 3.22583 18.0003H4.27968C4.43023 18.0003 4.50551 18.0782 4.54315 18.2341C4.80661 19.2471 5.29589 20.1821 5.93573 21.1172C6.57557 22.0522 7.36597 22.7925 8.30691 23.3769C9.24785 23.9613 10.2264 24.2341 11.3179 24.2341C12.4847 24.2341 13.388 23.9613 14.0278 23.4159C14.6677 22.8704 15.0064 22.2081 15.0064 21.4289C15.0064 20.6497 14.7806 20.0263 14.3289 19.5977C13.8773 19.1691 13.1998 18.7795 12.4471 18.5068C11.6943 18.2341 10.8286 17.8834 9.96297 17.5328C8.7962 17.1042 7.74235 16.5587 6.76377 15.9743C5.78519 15.351 4.99479 14.5717 4.39259 13.6367C3.79038 12.7016 3.52692 11.4938 3.52692 10.0912C3.52692 8.57173 3.86567 7.28602 4.54315 6.23407C5.22062 5.18212 6.16156 4.4029 7.32833 3.89641C8.4951 3.38991 9.73714 3.11719 11.0545 3.11719C12.4847 3.11719 13.7267 3.35095 14.7806 3.89641C15.8344 4.44186 16.7001 5.02628 17.4152 5.8055H17.6034L18.3562 3.66264C18.3938 3.5068 18.4314 3.46783 18.5067 3.46783H19.4853C19.6358 3.46783 19.7111 3.54576 19.7111 3.74057V10.4029C19.7111 10.5977 19.6358 10.6756 19.4853 10.6756H18.4314C18.2809 10.6756 18.2056 10.5977 18.168 10.4419C17.641 8.96134 16.9636 7.79251 16.0603 6.93537C15.157 6.07822 13.9526 5.64966 12.4471 5.64966C11.2803 5.64966 10.4523 5.92239 9.88769 6.46784C9.32312 7.01329 9.05967 7.63667 9.05967 8.33797C9.05967 9.35095 9.47367 10.0523 10.2641 10.5198C11.0545 10.9873 12.1836 11.5328 13.6891 12.0393C15.044 12.5068 16.2485 13.0523 17.2647 13.5977C18.2809 14.1432 19.1089 14.8834 19.7111 15.7406C20.3133 16.5977 20.5768 17.7276 20.5768 19.1691C20.5768 20.8445 20.2004 22.2471 19.41 23.338C18.6196 24.4289 17.6034 25.2081 16.3614 25.6756C15.1193 26.1432 13.802 26.3769 12.4847 26.3769C11.0168 26.3769 9.66186 26.0263 8.53273 25.4029C7.36596 24.7795 6.42503 23.9613 5.63464 22.9484H5.40881L4.76896 25.3639L4.39259 26.2211Z" fill="#7FB4E2"/>
<path d="M45.6398 3.15584C45.7151 3.31169 45.7151 3.54545 45.7151 3.66234V4.40259C45.7151 4.5974 45.6398 4.67533 45.4517 4.67533C45 4.71429 44.586 4.83117 44.2096 5.02597C43.8332 5.22078 43.4569 5.61039 43.0428 6.1948C42.6288 6.77922 42.1772 7.71429 41.6503 9L34.0474 28.2078C33.2194 30.2727 32.3914 31.8312 31.601 33C30.8106 34.1688 29.9826 34.9091 29.1169 35.3377C28.2512 35.7662 27.235 36 26.0683 36C24.4498 36 23.1702 35.5325 22.1539 34.5974C21.1377 33.7013 20.6484 32.5325 20.6484 31.2078C20.6484 30.039 20.9872 29.1429 21.627 28.4805C22.2669 27.8182 23.0572 27.4675 24.0358 27.4675C25.0144 27.4675 25.8048 27.8182 26.407 28.4416C27.0092 29.0649 27.3479 29.8442 27.3479 30.7403C27.3479 31.5195 27.1597 32.1818 26.7834 32.6883C26.407 33.1948 25.9177 33.5844 25.3155 33.8571C25.579 33.8961 25.8801 33.9351 26.1812 33.9351C26.9339 33.9351 27.6114 33.7792 28.2513 33.4675C28.8911 33.1169 29.5309 32.4935 30.1708 31.5974C30.8106 30.7013 31.4504 29.3377 32.1656 27.5844L32.5043 26.7273L24.6004 7.01299C24.224 6 23.8476 5.33766 23.4336 5.06494C23.0196 4.79221 22.4174 4.59741 21.5894 4.51948C21.4012 4.51948 21.3259 4.44156 21.3259 4.24675V3.23376C21.3259 3.11688 21.4388 3 21.5517 3H34.0474C34.198 3 34.3109 3.11688 34.3109 3.27273V4.24675C34.3109 4.44156 34.2356 4.51948 34.0851 4.51948C33.0689 4.55845 32.3161 4.67533 31.8645 4.87013C31.4128 5.06494 31.187 5.41559 31.187 5.88312C31.187 6.35065 31.3752 7.12987 31.7515 8.14286L35.8541 19.0519L39.6931 9.11688C40.1448 7.83117 40.3706 6.85714 40.3706 6.23377C40.3706 5.61039 40.1824 5.18181 39.7684 4.98701C39.3544 4.7922 38.7522 4.63636 37.9618 4.5974C37.7736 4.5974 37.6983 4.51948 37.6983 4.32468V3.31169C37.6983 3 38.037 3.03896 38.2629 3.03896C38.6016 3.03896 38.9403 3.03896 39.2414 3.03896C41.1986 3.03896 43.1934 3.03896 45.1506 3.03896C45.3011 3.03896 45.5646 3 45.6775 3.11688C45.6022 3.11688 45.6398 3.11688 45.6398 3.15584Z" fill="#7FB4E2"/>
<path d="M72.1369 24.3118C72.3251 24.3118 72.2875 24.5845 72.2875 24.7793V25.7923C72.2875 25.9871 72.2122 26.065 72.024 26.065H67.4698H65.061H60.4692C60.281 26.065 60.2058 25.9871 60.2058 25.7923V24.7793C60.2058 24.5845 60.281 24.5066 60.4692 24.5066C61.5231 24.4287 62.2758 24.156 62.6522 23.8053C63.0286 23.4157 63.2168 22.7533 63.2168 21.7404V12.078C63.2168 8.92218 62.0124 7.36374 59.5659 7.36374C58.3239 7.36374 57.3077 7.79231 56.5173 8.64945C55.7269 9.50659 55.3505 10.9482 55.3505 12.8962V21.7404C55.3505 22.7533 55.5387 23.4157 55.9151 23.8053C56.2914 24.1949 57.0442 24.3897 58.0981 24.4287C58.2862 24.4287 58.3615 24.5066 58.3615 24.7014V25.7144C58.3615 25.9092 58.2486 26.104 58.0604 26.104H53.5439H51.1351H46.5057C46.3175 26.104 46.2422 25.9092 46.2422 25.7144V24.7014C46.2422 24.5066 46.3175 24.4287 46.5057 24.4287C47.5595 24.3507 48.3123 24.078 48.6886 23.7274C49.065 23.3378 49.2532 22.6754 49.2532 21.6624V9.27283C49.2532 7.79231 49.0274 6.81828 48.5757 6.35075C48.1241 5.88322 47.4466 5.2988 46.6186 5.14296C46.3927 5.10399 46.2422 4.94816 46.2422 4.71439V3.42867C46.2422 3.19491 46.3175 3.03906 46.5057 3.03906H55.1999C55.3881 3.03906 55.4634 3.07802 55.4634 3.23387C55.4634 3.46763 55.3505 3.42868 55.2752 3.66244C55.2 3.89621 55.1247 4.75335 55.1247 5.25985V8.18192H55.1999C55.7269 6.62348 56.5549 5.37673 57.684 4.44166C58.8132 3.5066 60.281 3.03906 61.9747 3.03906C64.2706 3.03906 66.0772 3.7014 67.3193 5.02608C68.5613 6.35075 69.2012 8.33777 69.2012 10.9482V21.6235C69.2012 22.6365 69.3894 23.2988 69.7657 23.6884C70.1421 24.078 70.8949 24.2728 71.9487 24.3118H72.1369Z" fill="#7FB4E2"/>
<path d="M73.6094 15.1948C73.6094 12.7403 74.1363 10.5974 75.0772 8.76623C76.0558 6.93507 77.3731 5.49351 79.0292 4.51948C80.6853 3.5065 82.6048 3 84.6748 3C86.2933 3 87.7235 3.27273 88.9655 3.85714C90.2076 4.44156 91.1862 5.25974 91.8636 6.23377C92.5411 7.20779 92.9175 8.37662 92.9175 9.66233C92.9175 10.8312 92.5788 11.7273 91.9766 12.3506C91.3744 12.974 90.584 13.3247 89.6807 13.3247C88.7021 13.3247 87.9117 12.974 87.3095 12.3506C86.7073 11.7273 86.4438 10.948 86.4438 10.0519C86.4438 9.03896 86.7825 8.22077 87.3848 7.67532C87.987 7.0909 88.7397 6.81818 89.6054 6.81818C89.7936 6.81818 89.9818 6.81819 90.0947 6.85715C89.7183 6.42857 89.229 6.03896 88.5892 5.76623C87.9493 5.4935 87.1966 5.33766 86.3685 5.33766C84.4867 5.33766 82.9435 6.11688 81.8144 7.67532C80.6476 9.23376 80.1207 11.3766 80.1207 13.987C80.1207 16.5195 80.6853 18.5455 81.8144 20.026C82.9435 21.5065 84.5996 22.2078 86.6696 22.2078C88.1751 22.2078 89.3795 21.8571 90.3205 21.1558C90.9603 20.6493 91.4873 20.1818 91.8636 19.7143C92.1271 19.4026 92.6164 19.3247 92.9551 19.5584C93.2939 19.7922 93.4068 20.2597 93.2186 20.6494C92.8799 21.3117 92.4658 21.974 91.9013 22.7143C91.1485 23.7273 90.1323 24.5844 88.8903 25.2857C87.6482 25.987 86.0674 26.3377 84.1856 26.3377C82.1155 26.3377 80.3089 25.8701 78.7281 24.8961C77.1473 23.9221 75.9053 22.5974 75.0396 20.8831C74.1739 19.1688 73.6094 17.5325 73.6094 15.2727V15.1948Z" fill="#7FB4E2"/>
<path d="M99.2759 26.4177C98.5231 26.4177 97.7327 26.184 97.1305 25.7164C96.1519 25.0151 95.625 23.8463 95.625 22.5995C95.625 20.4956 97.3187 18.8203 99.3135 18.8203C100.33 18.8203 101.346 19.2489 102.061 20.0281C103.265 21.3917 103.303 23.6125 102.212 25.0151C101.496 25.9891 100.367 26.4567 99.2759 26.4177Z" fill="#FF9E52"/>
</g>
<defs>
<clipPath id="clip0_706_1106">
<rect width="100" height="33" fill="white" transform="translate(3 3)"/>
</clipPath>
</defs>
</svg>
