<svg width="81" height="31" viewBox="0 0 81 31" fill="none" xmlns="http://www.w3.org/2000/svg">
<g clip-path="url(#clip0_705_1090)">
<path d="M3.05837 20.5889C3.02976 20.707 2.94395 20.7365 2.85814 20.7365H2.20023C2.08581 20.7365 2 20.6479 2 20.5299V14.5676C2 14.4201 2.05721 14.361 2.17163 14.361H2.97256C3.08697 14.361 3.14419 14.4201 3.17279 14.5381C3.37302 15.3055 3.74488 16.0139 4.23116 16.7223C4.71744 17.4307 5.31814 17.9915 6.03325 18.4342C6.74837 18.877 7.49209 19.0836 8.32162 19.0836C9.20837 19.0836 9.89487 18.877 10.3812 18.4637C10.8674 18.0505 11.1249 17.5487 11.1249 16.9584C11.1249 16.3681 10.9532 15.8959 10.61 15.5712C10.2667 15.2465 9.75185 14.9513 9.17976 14.7447C8.60767 14.5381 7.94976 14.2725 7.29186 14.0068C6.40511 13.6822 5.60418 13.2689 4.86046 12.8262C4.11674 12.3539 3.51604 11.7636 3.05837 11.0552C2.60069 10.3469 2.40046 9.43186 2.40046 8.36929C2.40046 7.21817 2.65791 6.24414 3.17279 5.44721C3.68767 4.65028 4.40279 4.05996 5.28953 3.67626C6.17628 3.29255 7.12023 3.08594 8.12139 3.08594C9.20836 3.08594 10.1523 3.26303 10.9532 3.67626C11.7542 4.08948 12.4121 4.53222 12.9556 5.12254H13.0986L13.6707 3.49916C13.6993 3.3811 13.7279 3.35158 13.7851 3.35158H14.5288C14.6432 3.35158 14.7005 3.41061 14.7005 3.55819V8.60541C14.7005 8.75299 14.6432 8.81203 14.5288 8.81203H13.7279C13.6135 8.81203 13.5563 8.75299 13.5277 8.63493C13.1272 7.51333 12.6123 6.62785 11.9258 5.9785C11.2393 5.32915 10.3239 5.00447 9.17976 5.00447C8.29302 5.00447 7.66371 5.21109 7.23464 5.62431C6.80557 6.03753 6.60535 6.50979 6.60535 7.04107C6.60535 7.80849 6.91999 8.33978 7.52069 8.69397C8.12139 9.04816 8.97953 9.46138 10.1237 9.84509C11.1535 10.1993 12.0688 10.6125 12.8412 11.0257C13.6135 11.4389 14.2428 11.9998 14.7005 12.6491C15.1581 13.2985 15.3584 14.1544 15.3584 15.2465C15.3584 16.5157 15.0723 17.5783 14.4716 18.4047C13.8709 19.2312 13.0986 19.8215 12.1546 20.1757C11.2107 20.5299 10.2095 20.707 9.20836 20.707C8.09278 20.707 7.06301 20.4413 6.20487 19.9691C5.31813 19.4968 4.60302 18.877 4.00232 18.1096H3.83069L3.34441 19.9395L3.05837 20.5889Z" fill="white"/>
<path d="M34.4075 3.11806C34.4647 3.23613 34.4647 3.41322 34.4647 3.50177V4.06257C34.4647 4.21015 34.4075 4.26919 34.2645 4.26919C33.9213 4.2987 33.6066 4.38725 33.3206 4.53483C33.0345 4.68241 32.7485 4.97757 32.4338 5.42031C32.1192 5.86305 31.7759 6.57143 31.3754 7.54546L25.5973 22.0968C24.968 23.6612 24.3387 24.8418 23.738 25.7273C23.1373 26.6127 22.508 27.1736 21.8501 27.4982C21.1922 27.8229 20.4199 28 19.5331 28C18.3031 28 17.3306 27.6458 16.5582 26.9374C15.7859 26.2586 15.4141 25.3731 15.4141 24.3695C15.4141 23.4841 15.6715 22.8052 16.1578 22.3034C16.6441 21.8017 17.2448 21.536 17.9885 21.536C18.7322 21.536 19.3329 21.8017 19.7906 22.2739C20.2482 22.7462 20.5057 23.3365 20.5057 24.0153C20.5057 24.6057 20.3627 25.1074 20.0766 25.4911C19.7906 25.8749 19.4187 26.17 18.961 26.3766C19.1613 26.4061 19.3901 26.4357 19.6189 26.4357C20.191 26.4357 20.7059 26.3176 21.1922 26.0815C21.6785 25.8158 22.1648 25.3436 22.651 24.6647C23.1373 23.9858 23.6236 22.9528 24.1671 21.6246L24.4245 20.9752L18.4175 6.04014C18.1315 5.27273 17.8455 4.77096 17.5308 4.56435C17.2162 4.35773 16.7585 4.21016 16.1292 4.15112C15.9862 4.15112 15.9289 4.09209 15.9289 3.94451V3.17709C15.9289 3.08855 16.0148 3 16.1006 3H25.5973C25.7117 3 25.7975 3.08855 25.7975 3.20661V3.94451C25.7975 4.09209 25.7403 4.15112 25.6259 4.15112C24.8536 4.18064 24.2815 4.26919 23.9382 4.41677C23.595 4.56435 23.4234 4.82999 23.4234 5.18418C23.4234 5.53837 23.5664 6.12869 23.8524 6.8961L26.9703 15.1606L29.888 7.634C30.2313 6.65998 30.4029 5.92208 30.4029 5.44982C30.4029 4.97757 30.2599 4.65289 29.9452 4.50531C29.6306 4.35773 29.1729 4.23967 28.5722 4.21015C28.4292 4.21015 28.372 4.15112 28.372 4.00354V3.23613C28.372 3 28.6294 3.02951 28.801 3.02951C29.0585 3.02951 29.3159 3.02951 29.5447 3.02951C31.0322 3.02951 32.5482 3.02951 34.0357 3.02951C34.1501 3.02951 34.3503 3 34.4361 3.08855C34.3789 3.08855 34.4075 3.08855 34.4075 3.11806Z" fill="white"/>
<path d="M54.5472 19.147C54.6902 19.147 54.6616 19.3536 54.6616 19.5011V20.2686C54.6616 20.4161 54.6044 20.4752 54.4614 20.4752H51.0002H49.1695H45.6797C45.5367 20.4752 45.4795 20.4161 45.4795 20.2686V19.5011C45.4795 19.3536 45.5367 19.2945 45.6797 19.2945C46.4807 19.2355 47.0528 19.0289 47.3388 18.7632C47.6249 18.4681 47.7679 17.9663 47.7679 17.1989V9.87895C47.7679 7.48816 46.8525 6.30752 44.9932 6.30752C44.0493 6.30752 43.2769 6.63219 42.6762 7.28154C42.0755 7.93089 41.7895 9.02299 41.7895 10.4988V17.1989C41.7895 17.9663 41.9325 18.4681 42.2186 18.7632C42.5046 19.0584 43.0767 19.206 43.8776 19.2355C44.0207 19.2355 44.0779 19.2945 44.0779 19.4421V20.2095C44.0779 20.3571 43.9921 20.5047 43.849 20.5047H40.4165H38.5858H35.0674C34.9244 20.5047 34.8672 20.3571 34.8672 20.2095V19.4421C34.8672 19.2945 34.9244 19.2355 35.0674 19.2355C35.8684 19.1765 36.4404 18.9699 36.7265 18.7042C37.0125 18.4091 37.1556 17.9073 37.1556 17.1399V7.7538C37.1556 6.63219 36.9839 5.8943 36.6407 5.5401C36.2974 5.18591 35.7825 4.74317 35.1532 4.62511C34.9816 4.59559 34.8672 4.47754 34.8672 4.30044V3.32641C34.8672 3.14931 34.9244 3.03125 35.0674 3.03125H41.6751C41.8181 3.03125 41.8753 3.06077 41.8753 3.17883C41.8753 3.35593 41.7895 3.32641 41.7323 3.50351C41.6751 3.6806 41.6179 4.32995 41.6179 4.71366V6.92736H41.6751C42.0755 5.74672 42.7049 4.80221 43.563 4.09383C44.4211 3.38544 45.5367 3.03125 46.8239 3.03125C48.5688 3.03125 49.9418 3.53302 50.8858 4.53656C51.8297 5.54011 52.316 7.04542 52.316 9.02299V17.1104C52.316 17.8778 52.459 18.3795 52.7451 18.6747C53.0311 18.9699 53.6032 19.1174 54.4041 19.147H54.5472Z" fill="white"/>
<path d="M55.6641 12.2385C55.6641 10.379 56.0645 8.75561 56.7796 7.36836C57.5234 5.98111 58.5245 4.88902 59.7831 4.15112C61.0417 3.38371 62.5006 3 64.0738 3C65.3038 3 66.3908 3.20661 67.3347 3.64935C68.2787 4.09209 69.0224 4.71193 69.5373 5.44982C70.0522 6.18772 70.3382 7.0732 70.3382 8.04722C70.3382 8.9327 70.0808 9.61157 69.6231 10.0838C69.1654 10.5561 68.5648 10.8217 67.8782 10.8217C67.1345 10.8217 66.5338 10.5561 66.0761 10.0838C65.6185 9.61157 65.4182 9.02125 65.4182 8.34238C65.4182 7.57497 65.6757 6.95513 66.1333 6.54191C66.591 6.09917 67.1631 5.89256 67.821 5.89256C67.9641 5.89256 68.1071 5.89256 68.1929 5.92208C67.9068 5.59741 67.535 5.30224 67.0487 5.09563C66.5624 4.88902 65.9903 4.77095 65.361 4.77095C63.9308 4.77095 62.758 5.36127 61.8999 6.54191C61.0131 7.72255 60.6127 9.34593 60.6127 11.3235C60.6127 13.242 61.0417 14.7769 61.8999 15.8985C62.758 17.0201 64.0166 17.5514 65.5899 17.5514C66.734 17.5514 67.6494 17.2857 68.3645 16.7544C68.8508 16.3707 69.2513 16.0165 69.5373 15.6623C69.7375 15.4262 70.1094 15.3672 70.3668 15.5443C70.6243 15.7214 70.7101 16.0756 70.5671 16.3707C70.3096 16.8725 69.995 17.3743 69.5659 17.9351C68.9938 18.7025 68.2215 19.3518 67.2775 19.8831C66.3336 20.4144 65.1322 20.6801 63.702 20.6801C62.1287 20.6801 60.7557 20.3259 59.5543 19.588C58.3529 18.8501 57.4089 17.8465 56.751 16.5478C56.0931 15.2491 55.6641 14.0094 55.6641 12.2975V12.2385Z" fill="white"/>
<path d="M75.1731 20.74C74.601 20.74 74.0003 20.5629 73.5426 20.2087C72.7989 19.6774 72.3984 18.7919 72.3984 17.8474C72.3984 16.2536 73.6856 14.9844 75.2017 14.9844C75.974 14.9844 76.7463 15.3091 77.2898 15.8994C78.2052 16.9324 78.2338 18.6148 77.4042 19.6774C76.8608 20.4153 76.0026 20.7695 75.1731 20.74Z" fill="white"/>
</g>
<defs>
<clipPath id="clip0_705_1090">
<rect width="76" height="25" fill="white" transform="translate(2 3)"/>
</clipPath>
</defs>
</svg>
